<svg id="visual" viewBox="0 0 900 600" width="900" height="600" xmlns="http://www.w3.org/2000/svg" xmlns:xlink="http://www.w3.org/1999/xlink" version="1.1"><rect x="0" y="0" width="900" height="600" fill="#001220"></rect><path d="M0 412L21.5 412.7C43 413.3 86 414.7 128.8 404C171.7 393.3 214.3 370.7 257.2 356.7C300 342.7 343 337.3 385.8 346.5C428.7 355.7 471.3 379.3 514.2 393.7C557 408 600 413 642.8 411.3C685.7 409.7 728.3 401.3 771.2 393.3C814 385.3 857 377.7 878.5 373.8L900 370L900 601L878.5 601C857 601 814 601 771.2 601C728.3 601 685.7 601 642.8 601C600 601 557 601 514.2 601C471.3 601 428.7 601 385.8 601C343 601 300 601 257.2 601C214.3 601 171.7 601 128.8 601C86 601 43 601 21.5 601L0 601Z" fill="#fa7268"></path><path d="M0 436L21.5 429.7C43 423.3 86 410.7 128.8 412.8C171.7 415 214.3 432 257.2 424.5C300 417 343 385 385.8 374.7C428.7 364.3 471.3 375.7 514.2 391.8C557 408 600 429 642.8 431.2C685.7 433.3 728.3 416.7 771.2 405.7C814 394.7 857 389.3 878.5 386.7L900 384L900 601L878.5 601C857 601 814 601 771.2 601C728.3 601 685.7 601 642.8 601C600 601 557 601 514.2 601C471.3 601 428.7 601 385.8 601C343 601 300 601 257.2 601C214.3 601 171.7 601 128.8 601C86 601 43 601 21.5 601L0 601Z" fill="#ef5f67"></path><path d="M0 451L21.5 458C43 465 86 479 128.8 482.2C171.7 485.3 214.3 477.7 257.2 475.7C300 473.7 343 477.3 385.8 468.5C428.7 459.7 471.3 438.3 514.2 432.2C557 426 600 435 642.8 435.2C685.7 435.3 728.3 426.7 771.2 421.7C814 416.7 857 415.3 878.5 414.7L900 414L900 601L878.5 601C857 601 814 601 771.2 601C728.3 601 685.7 601 642.8 601C600 601 557 601 514.2 601C471.3 601 428.7 601 385.8 601C343 601 300 601 257.2 601C214.3 601 171.7 601 128.8 601C86 601 43 601 21.5 601L0 601Z" fill="#e34c67"></path><path d="M0 486L21.5 482C43 478 86 470 128.8 473.5C171.7 477 214.3 492 257.2 497.5C300 503 343 499 385.8 495C428.7 491 471.3 487 514.2 488.2C557 489.3 600 495.7 642.8 496.2C685.7 496.7 728.3 491.3 771.2 494.3C814 497.3 857 508.7 878.5 514.3L900 520L900 601L878.5 601C857 601 814 601 771.2 601C728.3 601 685.7 601 642.8 601C600 601 557 601 514.2 601C471.3 601 428.7 601 385.8 601C343 601 300 601 257.2 601C214.3 601 171.7 601 128.8 601C86 601 43 601 21.5 601L0 601Z" fill="#d53867"></path><path d="M0 555L21.5 555.3C43 555.7 86 556.3 128.8 557.8C171.7 559.3 214.3 561.7 257.2 554.3C300 547 343 530 385.8 528.5C428.7 527 471.3 541 514.2 547C557 553 600 551 642.8 547.8C685.7 544.7 728.3 540.3 771.2 539.8C814 539.3 857 542.7 878.5 544.3L900 546L900 601L878.5 601C857 601 814 601 771.2 601C728.3 601 685.7 601 642.8 601C600 601 557 601 514.2 601C471.3 601 428.7 601 385.8 601C343 601 300 601 257.2 601C214.3 601 171.7 601 128.8 601C86 601 43 601 21.5 601L0 601Z" fill="#c62368"></path></svg>